<svg width="282" height="48" viewBox="0 0 282 48" fill="none" xmlns="http://www.w3.org/2000/svg">
<path fill-rule="evenodd" clip-rule="evenodd" d="M62.0528 1.94304C63.3601 0.615348 65.3414 0.227254 67.0572 0.942167C68.7934 1.65708 69.8964 3.31159 69.9168 5.17037V42.8157C69.9168 45.3485 67.8538 47.4115 65.321 47.4115H16.7681L29.1055 35.0537L32.6392 40.7935H63.2784V10.0931L44.854 28.5174V19.1622L62.0528 1.94304ZM16.5639 40.7731H21.4458L14.8277 47.4116H0.570312L35.6623 12.3195C36.9696 10.9918 38.951 10.6037 40.6667 11.3186C42.3825 12.0336 43.506 13.7085 43.506 15.5673V39.425H36.8879V20.4491L16.5639 40.7731Z" fill="#0B213E"/>
<path d="M234.714 8.19775V39.5228H255.084V34.9727H239.824V26.0827H255.084V21.6028H239.824V12.5027H255.084V8.19775H234.714Z" fill="#0B213E"/>
<path d="M266.389 23.1427L256.239 39.5227H261.629L267.089 30.5627L267.09 30.5609L267.092 30.5584C267.406 30.0348 267.72 29.5112 267.999 28.9877C268.314 28.4627 268.559 27.9727 268.804 27.4827C269.024 27.9071 269.251 28.3386 269.486 28.7835L269.487 28.7852C269.774 29.3303 270.071 29.8956 270.379 30.4927L270.449 30.6327L275.699 39.5227H281.334L271.464 23.0727L280.634 8.26767H275.384L270.624 15.9677C270.359 16.4178 270.115 16.8479 269.89 17.2428L269.74 17.5062L269.679 17.6127C269.4 18.1022 269.155 18.5568 268.91 19.0114L268.909 19.0127L268.594 18.3827C267.964 17.1227 267.509 16.2827 267.264 15.8977L262.749 8.23267H257.394L266.389 23.1427Z" fill="#0B213E"/>
<path fill-rule="evenodd" clip-rule="evenodd" d="M105.284 8.96777H100.664L88.624 39.7678H93.804L97.234 30.9478H108.644L111.969 39.7678H117.324L105.354 9.14278L105.284 8.96777ZM98.984 26.1528L102.974 15.6178L106.894 26.1528H98.984Z" fill="#0B213E"/>
<path d="M152.569 34.0976C153.689 33.3626 154.564 32.3126 155.194 30.9826L155.159 30.8426H160.199L160.094 31.1576C159.149 33.9576 157.679 36.1276 155.754 37.5626C153.829 38.9976 151.484 39.7326 148.719 39.7326C147.004 39.7326 145.394 39.4176 143.994 38.8226C142.594 38.2276 141.299 37.3176 140.144 36.1276C139.059 35.0076 138.219 33.6426 137.589 32.1376C136.994 30.6326 136.679 29.0576 136.679 27.4826C136.679 25.8376 136.959 24.3326 137.519 22.8976C138.079 21.4976 138.919 20.1676 140.004 19.0126C141.194 17.7176 142.559 16.7376 144.064 16.0726C145.569 15.4076 147.179 15.0576 148.894 15.0576C151.554 15.0576 153.899 15.8276 155.859 17.2976C157.819 18.7676 159.289 20.8676 160.164 23.5276L160.269 23.8426H155.264L155.194 23.7026C154.494 22.3376 153.584 21.3226 152.499 20.6576C151.414 19.9926 150.084 19.6426 148.544 19.6426C146.584 19.6426 144.904 20.4126 143.539 21.8826C142.174 23.3526 141.474 25.2426 141.474 27.4126C141.474 29.6526 142.174 31.5076 143.574 32.9776C144.974 34.4476 146.724 35.1826 148.789 35.1826C150.189 35.1826 151.449 34.8326 152.569 34.0976Z" fill="#0B213E"/>
<path fill-rule="evenodd" clip-rule="evenodd" d="M183.194 20.5178C182.039 18.8028 180.569 17.4728 178.819 16.5278C177.069 15.5828 175.144 15.0928 173.079 15.0928C171.364 15.0928 169.754 15.4078 168.284 16.0728C166.814 16.7028 165.519 17.6828 164.364 18.9428C163.279 20.0978 162.439 21.4278 161.879 22.8628C161.319 24.2978 161.039 25.8378 161.039 27.4828C161.039 29.0578 161.354 30.6328 161.949 32.1378C162.579 33.6428 163.419 35.0078 164.504 36.1278C165.659 37.3528 166.954 38.2628 168.389 38.8578C169.824 39.4528 171.399 39.7678 173.114 39.7678C175.669 39.7678 177.944 39.0678 179.869 37.7028C181.794 36.3378 183.299 34.3428 184.384 31.7528L184.524 31.4028H179.379L179.309 31.5428C178.679 32.6978 177.804 33.6078 176.719 34.2028C175.634 34.8328 174.444 35.1478 173.114 35.1478C171.294 35.1478 169.684 34.5528 168.354 33.4328C167.094 32.3478 166.254 30.9478 165.904 29.2328H185.119V28.3228C185.119 26.7128 184.944 25.2778 184.629 24.0178C184.384 22.7578 183.859 21.5678 183.194 20.5178ZM166.114 25.0328C166.604 23.4228 167.479 22.0928 168.669 21.1478C169.929 20.1328 171.469 19.6078 173.219 19.6078C174.899 19.6078 176.369 20.0978 177.594 21.1128C178.749 22.0578 179.589 23.3878 180.079 25.0678H166.114V25.0328Z" fill="#0B213E"/>
<path fill-rule="evenodd" clip-rule="evenodd" d="M227.364 18.1726V8.26758H231.984V39.0676H227.364V36.6176C226.384 37.5276 225.334 38.2626 224.179 38.7526C222.884 39.3476 221.449 39.6276 219.944 39.6276C216.444 39.6276 213.504 38.4376 211.194 36.0926C208.849 33.7826 207.694 30.8076 207.694 27.3076C207.694 25.6976 208.009 24.1226 208.569 22.6526C209.129 21.1826 209.969 19.8876 211.054 18.7676C212.209 17.5426 213.504 16.6326 214.904 16.0376C216.304 15.4426 217.879 15.1626 219.664 15.1626C221.239 15.1626 222.709 15.4426 224.074 16.0026C225.229 16.4926 226.349 17.2276 227.364 18.1726ZM220.119 35.2176C222.079 35.2176 223.794 34.4476 225.299 32.9426C226.804 31.4376 227.539 29.6526 227.539 27.5526C227.539 25.3826 226.769 23.4926 225.299 21.9526C223.829 20.4126 222.044 19.6426 220.014 19.6426C217.949 19.6426 216.129 20.3776 214.659 21.8476C213.154 23.3176 212.419 25.1376 212.419 27.2726C212.419 29.5126 213.189 31.4376 214.659 32.9426C216.129 34.4476 217.984 35.2176 220.119 35.2176Z" fill="#0B213E"/>
<path d="M126.494 19.5727C126.56 19.5727 126.626 19.5649 126.696 19.5566C126.774 19.5474 126.856 19.5377 126.949 19.5377C127.439 19.5377 127.929 19.6077 128.349 19.7477C129.329 20.0977 130.099 20.8327 130.484 21.8127H135.524C135.279 20.2727 134.439 18.9077 133.249 17.8577C132.794 17.3677 132.234 16.9827 131.604 16.6327C130.834 16.2477 129.959 15.9677 128.979 15.8277C128.349 15.6877 127.684 15.6177 127.019 15.6177C125.584 15.6177 124.219 15.8977 122.994 16.3877C122.941 16.4052 122.889 16.4314 122.836 16.4577C122.784 16.4839 122.731 16.5102 122.679 16.5277C122.644 16.5452 122.618 16.5539 122.591 16.5627C122.574 16.5686 122.556 16.5745 122.536 16.583C122.526 16.5872 122.515 16.592 122.504 16.5977C121.944 16.8427 121.419 17.1577 120.964 17.5427C119.389 18.7677 118.619 20.4127 118.619 22.4077C118.619 23.8777 119.109 25.1027 120.054 26.1177C120.999 27.1327 122.679 28.1477 125.059 29.1277C125.479 29.3027 126.074 29.5477 126.879 29.8277C129.189 30.7027 130.379 31.7177 130.379 32.9427C130.379 33.8527 130.064 34.5877 129.399 35.1127C128.734 35.6377 127.859 35.9177 126.704 35.9177C125.374 35.9177 124.289 35.6377 123.414 35.0427C123.379 35.0077 123.344 35.0077 123.344 35.0077C122.539 34.4127 121.909 33.5727 121.664 32.5227H116.799C116.869 33.5027 117.184 34.4827 117.674 35.3577C118.444 36.7577 119.494 37.8427 120.789 38.5777C122.154 39.3477 123.869 39.7677 125.899 39.8027H126.214C129.049 39.8027 131.289 39.1727 132.899 37.9127C134.509 36.6527 135.314 34.9027 135.314 32.6627C135.314 31.1227 134.859 29.8277 133.984 28.8127C133.109 27.7977 131.639 26.8527 129.574 26.0477L129.302 25.9429C128.877 25.7792 128.333 25.5691 127.649 25.3127C125.024 24.3677 123.694 23.2827 123.694 22.1277C123.694 22.0353 123.704 21.9429 123.713 21.8557C123.721 21.7777 123.729 21.7037 123.729 21.6377C124.289 20.5527 125.269 19.7827 126.494 19.5727Z" fill="#0B213E"/>
<path d="M186.484 25.6628C186.484 20.0978 190.999 15.5828 196.564 15.5828C202.129 15.5828 206.644 20.1328 206.644 25.6628V39.6628H201.989V26.0828C201.989 23.1078 199.574 20.6578 196.564 20.6578C193.589 20.6578 191.139 23.0728 191.139 26.0828V39.6628H186.484V25.6628Z" fill="#0B213E"/>
</svg>
