<svg width="256" height="66" viewBox="0 0 256 66" fill="none" xmlns="http://www.w3.org/2000/svg">
<mask id="mask0_139_281" style="mask-type:luminance" maskUnits="userSpaceOnUse" x="0" y="0" width="256" height="66">
<path d="M255.669 0.102539H0.668945V65.8979H255.669V0.102539Z" fill="white"/>
</mask>
<g mask="url(#mask0_139_281)">
<path fill-rule="evenodd" clip-rule="evenodd" d="M4.81024 59.8828H8.25784V62.0821H4.81024V59.8828ZM233.923 30.0948C233.025 29.5322 231.719 29.2458 230.006 29.2458C228.955 29.2253 227.915 29.4504 226.946 29.8902C225.987 30.3301 225.14 30.9746 224.457 31.7929C222.978 33.4808 222.233 35.7926 222.233 38.7182V52.0982H217.062V25.8394H222.233V31.2507H222.366C223.029 29.5015 224.212 27.9876 225.752 26.9339C227.252 25.911 229.016 25.3689 230.832 25.3791C231.872 25.3382 232.913 25.4609 233.923 25.7371V25.8394H238.625V19.4358L243.796 18.0753V25.8394H251.926V29.4299H243.796V44.2216C243.796 45.9811 244.163 47.2393 244.898 47.986C245.632 48.743 246.856 49.1113 248.56 49.1113C249.743 49.1419 250.916 48.8453 251.946 48.2418L251.936 51.8323C250.712 52.3847 249.11 52.6506 247.111 52.6506C241.45 52.6506 238.615 50.083 238.625 44.9581V29.4197H233.923V30.0948ZM196.937 39.6798L204.73 38.8103L204.751 41.4188C204.771 42.4724 204.557 43.5158 204.128 44.4773C203.69 45.4389 203.047 46.2879 202.241 46.9631C200.569 48.4259 198.447 49.1522 195.887 49.1522C194.02 49.1522 192.521 48.743 191.389 47.9349C190.868 47.5973 190.44 47.1268 190.144 46.5846C189.848 46.0322 189.695 45.4184 189.695 44.7945C189.706 43.035 190.318 41.8075 191.531 41.1119C192.725 40.4367 194.53 39.956 196.937 39.6798ZM204.72 52.088H209.902V35.0152C209.902 28.4888 206.097 25.2256 198.508 25.2256C194.357 25.2256 190.695 26.044 187.523 27.6807V31.9873C190.624 29.8391 194.306 28.7139 198.07 28.7548C202.507 28.7548 204.73 30.9848 204.73 35.4448L195.04 36.5496C187.931 37.3475 184.371 40.2015 184.371 45.1116C184.34 46.1856 184.575 47.2495 185.054 48.2111C185.534 49.1726 186.238 50.0012 187.105 50.6252C188.93 52.0062 191.45 52.7018 194.663 52.7018C199.028 52.7018 202.343 51.1367 204.608 47.986H204.73V52.088H204.72ZM178.424 52.088H173.579V29.3992C173.6 27.1999 173.743 25.0006 173.987 22.8217H173.875C173.569 23.947 173.151 25.0517 172.631 26.0951L158.412 52.088H156.046L141.827 26.2895C141.286 25.1847 140.868 24.0186 140.572 22.8217H140.46C140.654 25.0211 140.725 27.2408 140.695 29.4504V52.088H135.962V18.2697H142.398L155.179 41.8484C155.933 43.1475 156.566 44.4978 157.096 45.9095H157.27C158.096 44.0579 158.769 42.6667 159.269 41.7563L172.304 18.2697H178.404L178.424 52.088ZM126.588 52.6506C128.587 52.6506 130.199 52.3847 131.413 51.8323L131.423 48.2418C130.393 48.8453 129.22 49.1419 128.036 49.1113C126.333 49.1113 125.109 48.7328 124.375 47.986C123.64 47.229 123.273 45.9811 123.273 44.2216V29.4197H131.413V25.8292H123.273V18.0651L118.102 19.4256V25.8292H112.543V29.4197H118.102V44.9581C118.102 50.083 120.927 52.6506 126.588 52.6506ZM74.8842 34.964V48.1906H82.0752C85.1862 48.1906 87.6036 47.5973 89.3172 46.4005C90.1332 45.8685 90.7962 45.1423 91.245 44.2728C91.6938 43.4135 91.9182 42.4417 91.8876 41.4699C91.8876 37.1326 88.2462 34.964 80.9634 34.964H74.8842ZM74.8842 19.221V31.0871H80.3004C83.2074 31.0871 85.482 30.5245 87.1446 29.389C87.9402 28.8775 88.593 28.1615 89.0214 27.3124C89.46 26.4736 89.6742 25.5223 89.6334 24.5812C89.6334 21.0111 86.7366 19.221 80.9532 19.221H74.8842ZM69.5904 52.088V15.3236H82.4628C86.3796 15.3236 89.4804 16.101 91.7754 17.6559C94.0704 19.2108 95.2128 21.2362 95.2128 23.7321C95.2434 25.7473 94.4988 27.6909 93.132 29.1742C91.7448 30.7188 89.8272 31.8134 87.3792 32.4578V32.5601C90.429 32.8465 92.8668 33.7876 94.7028 35.363C95.5902 36.1199 96.3042 37.061 96.7836 38.1249C97.263 39.1888 97.4874 40.3549 97.4568 41.521C97.4568 44.6717 96.0696 47.2188 93.2952 49.1624C90.5208 51.106 87.0222 52.0778 82.7994 52.088H69.5904ZM108.534 52.088H103.352V25.8394H108.534V52.088ZM106.015 19.1698C105.158 19.1903 104.321 18.9243 103.648 18.4026C103.342 18.1776 103.097 17.8912 102.924 17.5434C102.751 17.2058 102.669 16.8273 102.669 16.4488C102.669 16.0703 102.751 15.6919 102.924 15.3543C103.097 15.0167 103.342 14.7201 103.648 14.495C104.321 13.9631 105.158 13.6869 106.015 13.7176C106.882 13.6869 107.738 13.9631 108.432 14.495C108.738 14.7098 108.993 15.0065 109.166 15.3441C109.34 15.6816 109.432 16.0601 109.432 16.4386C109.432 16.8171 109.34 17.1956 109.166 17.5331C108.993 17.8707 108.738 18.1571 108.432 18.3822C107.738 18.9141 106.882 19.2005 106.015 19.1698ZM47.8848 44.7535C47.8848 47.6689 46.4772 49.858 44.4066 50.9628C42.336 52.0573 39.4188 52.6915 34.4718 52.6915H4.38184V51.2492H34.329C38.8986 51.2492 41.9586 50.5127 43.4682 49.6841C45.1308 48.7737 46.2528 46.5744 46.2528 44.7331C46.2528 41.8586 44.325 40.3447 42.8664 39.4854C42.1218 39.0455 39.6534 37.9305 33.1662 37.9305H21.7422V36.4882H33.4314C40.755 36.4882 42.3156 37.2145 44.0904 38.2886C45.9774 39.4445 47.8848 41.4904 47.8848 44.7535ZM34.635 22.075H24.231V23.2821H34.635V22.075ZM13.419 18.372H35.043V19.579H13.419V18.372ZM20.9364 22.075H7.88044V23.2821H20.9364V22.075ZM11.8482 13.779H17.55V14.8224H11.8482V13.779ZM22.0176 55.6478H8.24764V57.1618H22.0176V55.6478ZM8.24764 46.0015H22.8846V47.2597H8.24764V46.0015ZM16.071 41.4904H11.2566V42.7588H16.071V41.4904ZM25.557 46.0936H35.0226V47.1779H25.557V46.0936ZM35.1144 41.4904H18.8454V42.7588H35.1144V41.4904ZM46.7424 22.2693C46.7322 25.0722 45.8958 27.8137 44.325 30.1357C44.121 30.0232 43.917 29.9107 43.7232 29.7982C45.651 27.7625 46.7322 25.062 46.7424 22.2693ZM46.7424 21.9727C46.7424 22.0648 46.7424 22.1671 46.7424 22.2591C46.7424 22.1671 46.7424 22.075 46.7424 21.9727ZM46.4058 31.5474L46.3242 31.486C48.1296 28.8775 49.0374 25.7064 49.0374 21.9727C49.0374 16.4284 47.1402 12.0911 43.3458 8.95068C39.5514 5.81026 34.3392 4.23494 27.6888 4.24517H11.1444V6.56724H27.393C33.0438 6.56724 38.0826 7.82545 41.2752 10.4442C44.2434 12.8788 45.3348 14.9656 46.212 18.106C45.3246 15.252 43.2438 13.4107 41.9484 12.3264C39.684 10.4135 36.8688 9.08367 29.1984 9.08367H16.4382V11.3444H28.923C35.4612 11.3444 37.8684 12.1525 40.0716 13.7892C42.8868 15.8862 44.631 18.3822 44.631 21.9932C44.631 25.2461 43.4886 26.9851 41.5812 28.7855C41.3568 28.6934 41.1324 28.6116 40.908 28.5297L41.1222 28.4172C43.1928 27.2715 44.6208 25.0722 44.6208 21.9829C44.6208 18.6072 42.693 16.5 40.7958 15.3031C39.021 14.1881 37.338 13.4414 30.147 13.4414H20.967V14.9349H29.8818C36.3792 14.9349 38.8374 16.0908 39.582 16.5511C41.0406 17.4513 42.9684 19.0062 42.9684 21.9932C42.9684 23.8958 41.8464 26.1872 40.194 27.1181C39.6534 27.4147 39.0924 27.6602 38.5008 27.8341C36.0324 27.2715 33.513 27.0056 30.9834 27.026H19.9266V29.3583H30.6876C36.3384 29.3583 41.4486 30.5245 44.5698 33.2352C46.926 35.2504 48.6396 37.9101 49.4964 40.8868C48.6192 38.0328 46.8036 36.2938 45.243 35.1072C42.8766 33.3069 40.1634 31.8543 32.493 31.8645H15.153V34.1252H32.2176C38.7558 34.1252 41.1528 34.9333 43.356 36.57C46.1712 38.6671 47.895 41.163 47.895 44.774C47.895 48.252 46.1508 50.7889 43.3152 52.8859C40.4184 55.0238 35.9916 55.0954 34.1964 55.0954H24.7104V57.3561H31.7994C37.7358 57.3561 41.6934 56.8447 45.1206 54.2976C48.3336 51.8936 50.0472 48.7941 50.0472 44.7842C50.0778 46.9324 49.6188 49.0601 48.7008 51.0037C47.7828 52.9473 46.4364 54.6556 44.7534 55.9956C41.5098 58.686 35.7162 59.8726 29.9124 59.8726H11.2668V62.1844H30.0552C37.0524 62.1844 42.5196 60.6602 46.4364 57.6119C50.3634 54.5635 52.332 50.2774 52.332 44.7638C52.3218 39.2194 50.4144 34.872 46.62 31.7315C46.5588 31.6599 46.4874 31.5985 46.4058 31.5474Z" fill="#1F2020"/>
</g>
</svg>
