<svg width="220" height="54" viewBox="0 0 220 54" fill="none" xmlns="http://www.w3.org/2000/svg">
<g clip-path="url(#clip0_139_631)">
<path d="M34.3578 19.9527C30.2757 15.8564 23.7757 15.8564 19.7374 19.9527C15.6903 24.0929 15.7341 30.8231 19.7812 34.9634C23.8195 39.1037 30.4071 39.1478 34.4454 35.0075C34.5155 34.937 34.7958 34.6199 35.2951 34.0473L30.4158 29.0525C29.9165 29.6515 29.6537 29.9598 29.6187 29.9863C28.2433 31.3957 26.0095 31.3957 24.6255 29.9863C23.2501 28.5768 23.2501 26.2864 24.5817 24.921C25.9132 23.5556 28.1557 23.5556 29.5311 24.965C29.5311 24.965 33.876 29.4049 42.5659 38.2933C38.9919 43.5788 33.0088 46.9262 26.5614 46.9262C15.8917 46.9262 7.20182 37.9938 7.20182 26.9911C7.20182 15.9885 15.8917 7.04727 26.5614 7.04727C32.7985 7.04727 38.5188 10.1305 42.0929 15.0988C41.5147 15.7859 40.0518 17.4949 37.6866 20.2434L42.4959 25.15L50.485 15.9357C46.359 6.36016 37.0209 0.0175781 26.5702 0.0175781C12.0811 0.0175781 0.333984 12.1213 0.333984 27C0.333984 41.8786 12.0811 53.9823 26.5702 53.9823C33.1489 53.9823 38.6152 51.8681 43.95 47.1993C48.8118 42.9709 51.0982 37.1128 51.0982 37.1128L34.3578 19.9527Z" fill="url(#paint0_linear_139_631)"/>
<path d="M162.639 30.4443V45.2349H156.638V30.1184C156.025 26.6476 152.985 24.0048 149.324 24.0048C145.61 24.0048 142.526 26.7269 141.983 30.2769V45.226H135.982V18.3934L140.59 21.3269C142.929 19.3096 145.986 18.0851 149.324 18.0851C156.384 18.0851 162.157 23.5291 162.657 30.4355L162.639 30.4443ZM99.6371 14.9843C97.6398 16.0326 95.8615 17.4244 94.3811 19.0981C92.1648 16.0149 88.5557 14.0065 84.4735 14.0065C77.7283 14.0065 72.2621 19.4946 72.2621 26.2776C72.2621 33.0518 77.7283 38.5487 84.4735 38.5487C86.6635 38.5487 88.7133 37.9673 90.4916 36.9543C91.1574 39.1301 92.2173 41.1386 93.5751 42.8916C90.8771 44.3892 87.776 45.2349 84.4735 45.2349C74.0491 45.2349 65.5957 36.7428 65.5957 26.2776C65.5957 15.8123 74.0491 7.31152 84.4735 7.31152C90.6843 7.31152 96.2031 10.3331 99.6371 14.9843ZM108.572 45.2349C101.205 45.2349 95.2395 39.2446 95.2395 31.8538C95.2395 24.4629 101.214 18.4727 108.572 18.4727C115.939 18.4727 121.905 24.4629 121.905 31.8538C121.905 39.2446 115.939 45.2349 108.572 45.2349ZM108.572 39.2799C112.663 39.2799 115.983 35.95 115.983 31.845C115.983 27.7399 112.663 24.4101 108.572 24.4101C104.481 24.4101 101.161 27.7399 101.161 31.845C101.161 35.95 104.481 39.2799 108.572 39.2799ZM125.61 18.4639H131.541V45.2349H125.61V18.4639ZM190.067 13.7246H173.107V23.4587H189.567V29.5017H173.107V39.2006H190.067V45.2437H166.73V7.68151H190.067V13.7246ZM202.532 31.7921L193.404 18.4639H200.955C201.174 18.8339 201.498 19.3536 201.928 20.0055C202.427 20.7719 202.944 21.5647 203.487 22.384C204.021 23.2032 204.547 23.996 205.046 24.7624C205.545 25.52 205.896 26.0838 206.106 26.4538L206.413 26.9823L211.835 18.4727H219.018L210.048 31.5631L219.334 45.226H211.879L206.159 36.4786L205.852 36.9366C205.598 37.3154 205.221 37.8968 204.722 38.6809C204.223 39.4649 203.688 40.2929 203.119 41.165C202.541 42.0459 202.006 42.874 201.507 43.658C201.078 44.3275 200.754 44.8472 200.535 45.2172H193.404L202.532 31.7921Z" fill="#27282C"/>
<path d="M125.059 11.6368C125.059 10.4652 125.488 9.44335 126.338 8.58887C127.187 7.73438 128.212 7.30273 129.395 7.30273C130.604 7.30273 131.629 7.73438 132.487 8.58887C133.337 9.42574 133.766 10.4476 133.766 11.6633C133.766 12.8789 133.337 13.9096 132.487 14.7729C131.655 15.6274 130.639 16.059 129.43 16.059C128.221 16.059 127.196 15.6274 126.338 14.7729C125.488 13.9184 125.059 12.8789 125.059 11.6368Z" fill="url(#paint1_linear_139_631)"/>
</g>
<defs>
<linearGradient id="paint0_linear_139_631" x1="51.0957" y1="27" x2="0.334063" y2="27" gradientUnits="userSpaceOnUse">
<stop stop-color="#22E6B8"/>
<stop offset="1" stop-color="#00C1CE"/>
</linearGradient>
<linearGradient id="paint1_linear_139_631" x1="133.763" y1="11.686" x2="125.062" y2="11.686" gradientUnits="userSpaceOnUse">
<stop stop-color="#22E6B8"/>
<stop offset="1" stop-color="#00C1CE"/>
</linearGradient>
<clipPath id="clip0_139_631">
<rect width="219" height="54" fill="white" transform="translate(0.333984)"/>
</clipPath>
</defs>
</svg>
