<svg width="130" height="42" viewBox="0 0 130 42" fill="none" xmlns="http://www.w3.org/2000/svg">
<g clip-path="url(#clip0_139_590)">
<mask id="mask0_139_590" style="mask-type:luminance" maskUnits="userSpaceOnUse" x="0" y="0" width="130" height="42">
<path d="M129.334 0.983398H0.339844V41.016H129.334V0.983398Z" fill="white"/>
</mask>
<g mask="url(#mask0_139_590)">
<path fill-rule="evenodd" clip-rule="evenodd" d="M31.7923 22.2107C31.7632 26.4575 31.7429 30.7042 31.7016 34.9507C31.6957 35.5288 31.6355 36.1168 31.5131 36.6807C30.8604 39.6896 28.0463 41.4953 25.1364 40.7985C22.6553 40.2046 20.9437 38.0832 20.9124 35.5463C20.8906 33.7967 20.8894 32.0468 20.8698 30.2973C20.8589 29.3055 20.9085 28.3045 20.7932 27.3244C20.4615 24.5141 17.899 22.4893 14.7873 23.3379C12.8136 23.8764 11.4862 25.6664 11.43 27.8429C11.3805 29.7555 11.4144 31.6704 11.39 33.5839C11.3779 34.5438 11.4067 35.5168 11.2636 36.4605C10.7285 39.9907 6.62745 42.0321 3.50161 40.3554C1.49534 39.2792 0.653275 37.4771 0.566117 35.2944C0.485001 33.2607 0.51754 31.2226 0.50313 29.1863C0.479191 25.8708 0.441074 22.5551 0.442236 19.2396C0.442933 17.5337 1.0721 16.0623 2.31975 14.8985C3.90462 13.4199 5.80745 12.995 7.88903 13.3712C9.52505 13.6671 10.8357 14.5108 11.7991 15.9061C12.2425 16.5483 12.7457 17.1563 13.2777 17.727C13.948 18.4465 14.8396 18.7707 15.7949 18.8039C17.4602 18.862 18.85 18.2601 19.8476 16.8674C20.0494 16.5855 20.218 16.2784 20.4314 16.0063C20.7633 15.5828 21.0755 15.1272 21.4752 14.777C22.8842 13.5423 24.5497 13.0736 26.3937 13.2921C28.85 13.5826 30.5588 14.8896 31.4566 17.2176C31.6447 17.7053 31.711 18.2402 31.8336 18.7534C31.8336 19.8178 31.8336 20.8824 31.8336 21.9468C31.8192 22.0349 31.7929 22.1226 31.7923 22.2107ZM25.7591 12.534C23.3021 12.2585 21.3851 10.523 20.9262 8.11498C20.5166 5.96398 20.9653 4.02931 22.5865 2.50409C25.4007 -0.142979 30.3256 0.875864 31.5824 5.13383C31.6878 5.49109 31.7508 5.86075 31.8336 6.22479C31.8336 6.69558 31.8336 7.16638 31.8336 7.63717C31.6707 8.19061 31.5625 8.76815 31.3353 9.29325C30.3925 11.4702 28.0832 12.7948 25.7591 12.534ZM6.97166 12.4659C6.69786 12.5167 6.41688 12.5467 6.13053 12.5563C6.11658 12.5567 6.10311 12.5579 6.08916 12.5584C5.98875 12.5609 5.88787 12.5607 5.78632 12.5581C5.68474 12.5553 5.58271 12.5497 5.47997 12.5415C2.9991 12.3428 0.98099 10.476 0.544733 7.98741C0.222365 6.14846 0.562863 4.4692 1.75147 3.0121C4.10265 0.12929 8.68717 0.493096 10.6051 3.70226C11.2008 4.69887 11.483 5.77904 11.4706 6.93975C11.5004 9.72612 9.55387 11.986 6.97166 12.4659Z" fill="#A7BA59"/>
<path fill-rule="evenodd" clip-rule="evenodd" d="M75.7293 14.7093C73.5613 14.7093 71.8037 12.939 71.8037 10.755C71.8037 8.5712 73.5613 6.80087 75.7293 6.80087C77.8973 6.80087 79.655 8.5712 79.655 10.755C79.655 12.939 77.8973 14.7093 75.7293 14.7093ZM77.0065 9.32152C76.8549 9.23327 76.6942 9.16257 76.5267 9.11106L76.7143 8.34974L76.2849 8.24299L76.0973 8.99729L75.7566 8.91208L75.9427 8.15638L75.5132 8.0482L75.327 8.80391L74.4235 8.57612L74.312 9.02467L74.8087 9.15297C74.859 9.16585 74.8474 9.19323 74.8474 9.20915C74.8474 9.22507 74.2818 11.495 74.2748 11.5324C74.2676 11.5699 74.2632 11.5814 74.2219 11.5699L73.748 11.4517L73.6247 11.9492L74.4996 12.1683L74.3207 12.8894L74.786 13.0076L74.9649 12.2865L75.2509 12.3586L75.0722 13.0797L75.5159 13.1923L75.6949 12.4712L76.0299 12.5562C76.2517 12.6124 77.0954 12.6211 77.2813 11.8698C77.4035 11.4585 77.2293 11.0162 76.8602 10.8013C76.8602 10.8013 77.3758 10.6398 77.456 10.1538C77.5349 9.66918 77.1954 9.4456 77.0065 9.32152ZM76.3616 10.3811C76.2503 10.4441 76.1181 10.4593 75.9956 10.4235L75.4159 10.2793L75.642 9.36483L76.1716 9.49898C76.2619 9.52053 76.6828 9.70523 76.5884 10.0889C76.5547 10.213 76.4729 10.3184 76.3616 10.3811ZM76.4119 11.1857C76.471 11.2955 76.483 11.425 76.4452 11.5439C76.3706 11.7919 76.1268 11.9471 75.8725 11.9087L75.0722 11.7141L75.3099 10.755L76.1316 10.9626C76.2514 10.9954 76.3527 11.0759 76.4119 11.1857Z" fill="#171D31"/>
<path fill-rule="evenodd" clip-rule="evenodd" d="M126.475 12.588H121.947V33.5997C121.73 35.5543 120.653 36.5317 118.713 36.5317C116.664 36.5317 115.64 35.5543 115.64 33.5997V12.588H111.113C109.602 12.588 108.796 11.6108 108.687 9.65622C108.796 7.92053 109.602 6.99649 111.113 6.88718H126.475C128.092 6.99649 129.006 7.92053 129.224 9.65622C129.115 11.6108 128.198 12.588 126.475 12.588ZM105.927 27.4104C105.927 32.2377 102.531 36.4247 96.3866 36.5317H87.8161C85.6582 36.5317 84.5818 35.5009 84.5818 33.4368V9.98186C84.5818 8.02728 85.6582 6.99649 87.8161 6.88718H95.7398C100.591 7.32239 103.178 9.76554 103.502 14.2169C103.502 17.2582 102.208 19.2662 99.6207 20.2437V20.4062C103.502 21.2767 105.604 23.6106 105.927 27.4104ZM93.961 12.4252H90.7269V18.6146H93.961C96.0075 18.5077 97.1396 17.4212 97.3566 15.357C97.2481 13.6213 96.1163 12.6439 93.961 12.4252ZM95.093 24.1527H90.7269V30.9937H95.578C98.0567 30.9937 99.352 29.7795 99.4589 27.4104C99.3503 25.3487 97.8949 24.262 95.093 24.1527ZM75.6773 36.5317C73.8429 36.5317 72.8726 35.5009 72.7665 33.4368V19.9906C72.7665 17.9292 73.7369 16.789 75.6773 16.5702C77.6178 16.789 78.6409 17.9292 78.7498 19.9906V33.4368C78.5324 35.5009 77.5091 36.5317 75.6773 36.5317ZM63.215 36.5317C61.0573 36.5317 59.981 35.5543 59.981 33.5997V24.4783H47.0443V33.5997C46.9356 35.5543 45.9123 36.5317 43.9717 36.5317C41.9227 36.5317 40.8994 35.5543 40.8994 33.5997V9.81916C40.8994 7.75759 41.9227 6.67086 43.9717 6.56152C45.9123 6.67086 46.9356 7.75759 47.0443 9.81916V18.6146H59.981V9.81916C59.981 7.75759 61.0573 6.67086 63.215 6.56152C65.1557 6.67086 66.1789 7.75759 66.2875 9.81916V33.5997C66.1789 35.5543 65.1557 36.5317 63.215 36.5317Z" fill="#171D31"/>
</g>
</g>
<defs>
<clipPath id="clip0_139_590">
<rect width="128.994" height="40.541" fill="white" transform="translate(0.339844 0.729492)"/>
</clipPath>
</defs>
</svg>
