<svg width="123" height="54" viewBox="0 0 123 54" fill="none" xmlns="http://www.w3.org/2000/svg">
<g clip-path="url(#clip0_2008_805)">
<path d="M21.2793 14.9925C21.4192 8.11937 17.5162 2.13053 15.4817 0.690652C15.4722 0.681195 15.292 0.584258 15.3063 0.853791C15.3063 0.85852 15.3015 0.858518 15.3015 0.863247C15.0929 13.8458 8.39899 17.345 4.76634 22.1044C-3.30992 32.6847 3.42899 44.757 12.1597 47.0433C12.3091 47.0811 12.7122 47.2017 13.4781 47.3578C13.8764 47.4405 13.9926 47.1024 13.701 46.5988C12.6576 44.7901 10.801 41.733 10.4335 37.8082C9.59644 28.6938 21.1157 22.991 21.2793 14.9925Z" fill="black"/>
<path d="M25.6801 19.3947C25.6114 19.3427 25.5141 19.3475 25.5047 19.4373C25.3197 21.09 23.6053 24.5159 21.3503 27.7172C13.7578 38.5151 17.5825 43.4139 20.5513 46.8115C21.099 47.4404 21.3717 47.3033 21.661 46.854C21.9313 46.4285 22.3391 45.887 24.0938 45.0572C24.3665 44.9271 30.9963 41.4185 31.7148 33.4294C32.4048 25.698 27.4348 20.811 25.6801 19.3947Z" fill="#008CD6"/>
<path d="M65.1102 17.4277V45.8422H58.9973V34.3634H47.2504V45.8422H40.9834V17.4277H47.2504V28.9066H58.9973V17.4277H65.1102Z" fill="black"/>
<path d="M93.3729 17.4277V23.0477H90.4634H84.5971V45.8399H78.3087V23.0477H72.5989H69.6895V17.4277H93.3729Z" fill="black"/>
<path fill-rule="evenodd" clip-rule="evenodd" d="M115.634 45.8706L108.449 35.983L101.319 45.828L94.3477 45.8375L104.916 31.3323L94.9405 17.4277H101.907L122.572 45.8706H115.634Z" fill="black"/>
<path d="M110.402 23.7847L113.85 28.5606L122.019 17.4199H115.09L110.402 23.7847Z" fill="#008CD6"/>
</g>
<defs>
<clipPath id="clip0_2008_805">
<rect width="122" height="54" fill="white" transform="translate(0.931641)"/>
</clipPath>
</defs>
</svg>
