<svg width="208" height="50" viewBox="0 0 208 50" fill="none" xmlns="http://www.w3.org/2000/svg">
<path fill-rule="evenodd" clip-rule="evenodd" d="M50.4801 24.9998C50.4801 38.7753 39.3129 49.9425 25.5374 49.9425C11.7619 49.9425 0.594727 38.7753 0.594727 24.9998C0.594727 11.2243 11.7619 0.0571289 25.5374 0.0571289C39.3129 0.0571289 50.4801 11.2243 50.4801 24.9998ZM27.8415 29.0146L27.8415 29.0146C27.954 29.1734 28.089 29.3639 28.3311 29.7473C28.7322 30.3384 28.9222 30.8978 28.9539 31.605C28.9328 33.4628 27.4128 34.9617 25.555 34.9617C24.6578 34.9617 23.8028 34.6134 23.1695 33.9906L23.1693 33.9905C23.0638 33.9061 22.9583 33.8217 22.8528 33.7267C21.565 32.5867 19.0528 31.13 15.1367 33.6739C15.0312 33.7372 14.9491 33.7959 14.856 33.8623C14.8095 33.8956 14.7602 33.9308 14.7039 33.9695C14.06 34.6028 13.1945 34.9617 12.2973 34.9617C10.4501 34.9617 8.93006 33.4734 8.8984 31.6156V31.5417C8.8984 30.6128 9.2784 29.7261 9.95395 29.0823L10.3867 28.47C11.1678 27.4145 11.5901 26.1478 11.5901 24.8389C11.5901 23.9206 11.3789 23.0128 10.9778 22.1895C10.7351 21.7567 10.4395 21.3345 10.1017 20.9651C9.9645 20.8384 9.83784 20.7012 9.72173 20.5534C9.65839 20.5006 9.61617 20.4373 9.57395 20.374C9.56351 20.3479 9.51179 20.2727 9.45705 20.1932C9.40108 20.112 9.34196 20.0261 9.32062 19.9834C9.05673 19.4873 8.90895 18.9279 8.90895 18.3684C9.06729 16.6056 10.5345 15.2651 12.2973 15.2651C14.06 15.2651 15.5273 16.6162 15.6856 18.3684C15.6856 18.8856 15.5589 19.3923 15.3267 19.8567L15.3056 19.8884C15.1895 20.1312 15.0312 20.3528 14.8623 20.5534L14.7975 20.6362L14.7975 20.6362L14.7975 20.6362C14.6966 20.7653 14.5842 20.9092 14.4717 21.039C13.3317 22.3267 11.8751 24.8389 14.4189 28.755C14.5562 28.9873 14.7462 29.1878 14.9573 29.3567L15.2423 29.5889C15.2423 29.5889 18.1134 31.9217 21.66 30.2328C22.5045 29.7684 23.0745 29.2511 23.6339 28.47C24.4044 27.425 24.8267 26.1584 24.8267 24.8601C24.8267 23.9312 24.6156 23.0128 24.2039 22.1895C23.9506 21.7567 23.655 21.3345 23.3172 20.9651C23.18 20.8384 23.0533 20.7012 22.9372 20.5534C22.8739 20.5006 22.8317 20.4373 22.7895 20.374C22.7807 20.3565 22.743 20.3028 22.6988 20.2399L22.6988 20.2399L22.6987 20.2398L22.6987 20.2398C22.6363 20.1508 22.5608 20.0434 22.5361 19.994C22.2406 19.4873 22.0928 18.9067 22.0928 18.3156C22.0928 16.4262 23.6233 14.9062 25.5022 14.9062C27.3811 14.9062 28.9011 16.4262 28.9011 18.3051V18.3684V18.3895C28.9011 18.8962 28.785 19.4029 28.5633 19.8567L28.5422 19.8884C28.4261 20.1206 28.2678 20.3423 28.0989 20.5428L28.0341 20.6256C27.9333 20.7547 27.8208 20.8986 27.7083 21.0284C26.5683 22.3162 25.1117 24.8284 27.6555 28.7445C27.7206 28.844 27.7774 28.9242 27.8415 29.0146ZM41.631 29.948L41.5255 29.7897L41.4938 29.7474C41.2517 29.3641 41.1167 29.1735 41.0042 29.0148C40.9401 28.9244 40.8834 28.8442 40.8183 28.7447C38.2744 24.8286 39.731 22.3164 40.871 21.0286C40.9835 20.8988 41.096 20.7549 41.1968 20.6258L41.2616 20.543C41.4305 20.3425 41.5888 20.1208 41.7049 19.8886L41.726 19.8569C41.9477 19.4136 42.0638 18.9175 42.0638 18.4108V18.3686C41.9055 16.6164 40.4383 15.2653 38.6755 15.2653C36.9127 15.2653 35.4455 16.6058 35.2872 18.3686C35.2872 18.928 35.435 19.4875 35.6988 19.9836C35.7236 20.0331 35.799 20.1405 35.8615 20.2295C35.9057 20.2924 35.9434 20.3461 35.9522 20.3636C35.9944 20.4269 36.0366 20.4903 36.1 20.543C36.2161 20.6908 36.3427 20.828 36.4799 20.9547C36.8177 21.3347 37.1133 21.7464 37.3561 22.1791C37.7572 23.0025 37.9683 23.9102 37.9683 24.8286C37.9683 26.1375 37.5461 27.4041 36.7649 28.4597L35.9205 29.6736C35.8975 29.6965 35.8801 29.725 35.8642 29.7511C35.8582 29.7609 35.8524 29.7704 35.8466 29.7791L35.8255 29.8108C35.4983 30.3386 35.3188 30.9402 35.3188 31.563V31.6263C35.4772 33.3785 36.9444 34.7297 38.7072 34.7297C40.4699 34.7297 41.9372 33.3891 42.0955 31.6263C42.0955 31.0352 41.9371 30.4547 41.631 29.948ZM32.1311 28.2696C34.049 28.2696 35.6039 26.6959 35.6039 24.7546C35.6039 22.8133 34.049 21.2396 32.1311 21.2396C30.2131 21.2396 28.6583 22.8133 28.6583 24.7546C28.6583 26.6959 30.2131 28.2696 32.1311 28.2696Z" fill="#D1AF39"/>
<path d="M69.1875 38.3954V11.5903H76.0401V33.0328H88.0986V38.3954H69.1875Z" fill="#171D31"/>
<path d="M207.571 38.3954L194.207 25.076L207.571 11.7567H197.789L189.32 20.2052V11.5903H182.468V38.3954H189.32V29.9469L197.789 38.3954H207.571Z" fill="#171D31"/>
<path d="M129.49 33.1992L127.858 38.3954H120.687L129.983 11.5903H139.105L148.401 38.3954H141.23L139.598 33.1992L137.967 28.162L134.544 16.9529L130.955 28.162L129.49 33.1992Z" fill="#171D31"/>
<path d="M159.484 20.8556V38.3954H152.965V11.5903H161.442L171.543 29.9469V11.5903H178.069V38.3954H169.592L159.484 20.8556Z" fill="#171D31"/>
<path d="M115.648 28.0027C115.322 27.1934 114.836 26.5429 114.343 25.8925C113.857 25.4084 113.204 24.9168 112.385 24.5916C111.732 24.2663 110.92 24.1075 110.267 23.9411C110.92 23.7823 111.573 23.6159 112.225 23.2906C112.878 22.9654 113.364 22.6402 113.857 22.1561C114.343 21.6721 114.669 21.1804 114.836 20.3711C115.162 19.7207 115.162 18.9114 115.162 18.0945C115.162 17.2852 115.003 16.4684 114.836 15.6591C114.51 14.8498 114.183 14.1993 113.371 13.5489C112.719 12.8984 111.907 12.4143 110.761 12.0891C109.622 11.7639 108.317 11.605 106.686 11.605H92.5023V38.4101H107.657C110.427 38.4101 112.385 37.7596 113.849 36.4587C115.314 35.1578 115.967 33.3728 115.967 31.0962C116.134 29.9465 115.974 28.9708 115.648 28.0027ZM99.5066 15.9767H106.678C107.331 15.9767 107.816 16.1356 108.31 16.302C108.795 16.4608 109.122 16.6272 109.448 16.9524C109.774 17.2777 109.934 17.6029 110.1 17.9281C110.26 18.2534 110.26 18.5786 110.26 19.0626C110.26 19.8719 109.934 20.6888 109.448 21.1729C108.962 21.8233 107.983 21.9822 106.678 21.9822H99.5066V15.9767ZM110.267 32.7072C109.782 33.3577 108.803 33.5165 107.498 33.5165H99.5066V27.5035H107.49C108.143 27.5035 108.628 27.6623 109.122 27.8287C109.607 27.9876 109.934 28.154 110.26 28.4792C110.586 28.8044 110.746 29.1297 110.912 29.4549C111.072 29.7801 111.072 30.1054 111.072 30.5894C111.079 31.4138 110.92 32.2231 110.267 32.7072Z" fill="#171D31"/>
</svg>
