<svg width="220" height="32" viewBox="0 0 220 32" fill="none" xmlns="http://www.w3.org/2000/svg">
<path d="M50.6298 22.5233L39.6634 3.2154C37.27 -0.805566 31.3756 -0.841791 29.0537 3.39655L17.5511 23.4652C15.4078 27.1601 18.0512 31.7607 22.3736 31.7607H45.4859C49.8084 31.7969 53.0591 27.0152 50.6298 22.5233Z" fill="#192F82"/>
<path d="M34.8013 24.0449L34.1226 22.8494C33.4796 21.7265 32.0864 19.3356 32.0864 19.3356L22.7986 2.96197C20.4052 -0.660532 14.6896 -0.986562 12.2962 3.61402L1.47239 22.5959C-0.778119 26.5806 1.90106 31.7608 6.7593 31.797H29.7287H39.5165H45.3394C39.4094 31.8333 37.5162 28.6817 34.8013 24.0449Z" fill="#4175EB"/>
<path d="M34.8095 23.9719L34.1308 22.7764C33.4878 21.6535 32.0947 19.2626 32.0947 19.2626L26.0933 8.54004L17.4842 23.4647C15.3409 27.1597 17.9843 31.7603 22.3067 31.7603H29.7012H39.4892H45.3477C39.382 31.724 37.5245 28.6449 34.8095 23.9719Z" fill="url(#paint0_linear_2001_298)"/>
<path d="M200.633 8.14317C202.313 6.55289 205.263 5.7956 209.557 5.7956H219.601V0.00244141L207.727 0.00244141C204.889 0.00244141 202.5 0.305364 200.633 0.911182C198.803 1.517 197.198 2.46359 195.816 3.78883C194.36 5.22765 193.203 7.00724 192.381 9.12761C191.56 11.2858 191.149 13.6334 191.149 16.0946C191.149 18.4421 191.56 20.714 192.381 22.7965C193.203 24.879 194.36 26.6964 195.816 28.1353C197.16 29.4605 198.766 30.4071 200.558 31.0129C202.388 31.6188 204.815 31.9216 207.727 31.9216H219.601V26.2042H209.557C207.279 26.2042 205.711 26.1285 204.815 25.9391C203.881 25.7498 203.023 25.4469 202.313 24.9925C200.894 24.0838 199.811 22.91 199.102 21.4333C198.43 19.9945 198.094 18.1771 198.094 16.0567C198.094 12.4218 198.953 9.73345 200.633 8.14317Z" fill="#171D31"/>
<path d="M113.224 31.9974H141.228V26.3935H120.057V18.4042H138.539V13.1033H120.057V5.682L141.228 5.682V0.0403058L113.224 0.0403058V31.9974Z" fill="#171D31"/>
<path d="M148.21 0.0403058L161.316 16.0188L148.21 31.9974H156.686L167.028 19.3509V12.7247L156.686 0.0403058L148.21 0.0403058Z" fill="#171D31"/>
<path d="M180.022 0.0403058L169.679 12.7247V19.3509L180.022 31.9974H188.498L175.355 16.0188L188.498 0.0403058L180.022 0.0403058Z" fill="#171D31"/>
<path d="M85.7801 15.7917L73.197 0.0403058L66.7002 0.0403058V31.9974H73.5331V10.68L84.4359 23.9324H87.0868L97.9896 10.5665V31.9974H104.822V0.0403058L98.4005 0.0403058L85.7801 15.7917Z" fill="#171D31"/>
<defs>
<linearGradient id="paint0_linear_2001_298" x1="14.4117" y1="16.7007" x2="41.1873" y2="26.4578" gradientUnits="userSpaceOnUse">
<stop stop-color="#3363C5"/>
<stop offset="1" stop-color="#2A4091"/>
</linearGradient>
</defs>
</svg>
