<svg width="241" height="56" viewBox="0 0 241 56" fill="none" xmlns="http://www.w3.org/2000/svg">
<path d="M49.0389 14.0411L49.0293 28.0289L36.9351 21.0254L24.8506 14.0123L36.9639 7.03755L49.058 0.0532227L49.0389 14.0411Z" fill="#19363C"/>
<path opacity="0.5" d="M24.831 27.9996L24.8215 41.9874L12.7369 34.9839L0.652344 27.9708L12.7561 20.996L24.8502 14.0117L24.831 27.9996Z" fill="#265A36"/>
<path d="M0.671495 13.9835L0.681071 -0.00439453L12.7656 7.00872L24.8502 14.0122L12.7561 20.9966L0.652344 27.9713L0.671495 13.9835Z" fill="#5DAD70"/>
<path d="M0.620226 41.9585L0.639377 27.9707L12.7239 34.9838L24.8085 41.9873L12.7144 48.9717L0.601074 55.9464L0.620226 41.9585Z" fill="#19363C"/>
<path d="M36.9199 21.0248L24.8354 14.0117L24.8162 27.9996L24.8066 41.9874L36.8912 49.0101L48.9662 56.004L48.9853 42.0162L49.0141 28.0283L36.9199 21.0248Z" fill="#5DAD70"/>
<path d="M73.9174 19.2596H67.9738L67.9534 27.2335H73.8971C76.3559 27.2335 78.1339 25.6593 78.1339 23.2517C78.1339 20.8441 76.3559 19.2596 73.9174 19.2596ZM63.5947 40.4547L63.6252 15.3807L74.5067 15.391C79.7087 15.391 82.5942 19.0127 82.5942 23.262C82.5942 27.5113 79.6478 31.1124 74.4864 31.1124L67.9433 31.1021L67.9229 40.465H63.5947V40.4547Z" fill="#171D31"/>
<path d="M97.743 18.9098C92.7442 18.9098 89.5336 22.7681 89.5336 27.9537C89.5336 33.0981 92.7137 37.0182 97.7328 37.0182C102.711 37.0182 105.942 33.1187 105.942 27.9743C105.952 22.7887 102.711 18.9201 97.743 18.9098ZM97.7532 15C105.18 15.0103 110.403 20.5046 110.403 27.9846C110.382 35.4646 105.15 40.9485 97.7227 40.9383C90.2956 40.928 85.0733 35.4337 85.0733 27.9537C85.0936 20.4737 90.3261 14.9897 97.7532 15Z" fill="#171D31"/>
<path d="M114.578 40.5164L114.619 15.4424H118.957L118.927 36.6478L129.839 36.6581V40.5267L114.578 40.5164Z" fill="#171D31"/>
<path d="M144.226 18.9715C139.227 18.9715 136.016 22.8298 136.016 28.0154C136.016 33.1599 139.196 37.0799 144.216 37.0799C149.194 37.0799 152.425 33.1804 152.425 28.036C152.425 22.8504 149.204 18.9818 144.226 18.9715ZM144.226 15.0617C151.653 15.0823 156.875 20.5663 156.875 28.0463C156.855 35.5263 151.622 41.0103 144.195 41C136.768 40.9897 131.546 35.4954 131.546 28.0154C131.566 20.5354 136.809 15.0515 144.226 15.0617Z" fill="#171D31"/>
<path d="M178.323 40.5987L165.43 22.3154L165.42 40.5781H161.071L161.102 15.5042H165.552L178.191 33.3039L178.201 15.5145H182.55L182.519 40.5987H178.323Z" fill="#171D31"/>
<path d="M187.782 40.609L187.813 15.535H192.161L192.131 40.609H187.782Z" fill="#171D31"/>
<path d="M197.404 40.6296L197.434 15.5453L214.402 15.5659V19.4345L201.783 19.4242L201.773 25.9165L214.128 25.9371V29.8057L201.773 29.7851L201.752 36.7404L214.371 36.7507V40.6296H197.404Z" fill="#171D31"/>
<path d="M235.393 40.6707L228.464 30.8449L221.514 40.6605H216.302L225.608 27.8097L216.911 15.5762H222.113L228.484 24.795L234.834 15.5968H240.077L231.369 27.7685L240.595 40.6707H235.393Z" fill="#171D31"/>
</svg>
