<svg width="251" height="72" viewBox="0 0 251 72" fill="none" xmlns="http://www.w3.org/2000/svg">
<circle cx="47.7346" cy="19.3704" r="19.1174" fill="url(#paint0_radial_2001_309)"/>
<circle cx="29.4026" cy="19.3704" r="19.1174" fill="url(#paint1_radial_2001_309)"/>
<circle cx="19.4514" cy="35.8694" r="19.1174" fill="url(#paint2_radial_2001_309)"/>
<circle cx="28.6174" cy="52.6292" r="19.1174" fill="url(#paint3_radial_2001_309)"/>
<circle cx="47.7346" cy="52.6292" r="19.1174" fill="url(#paint4_radial_2001_309)"/>
<path fill-rule="evenodd" clip-rule="evenodd" d="M66.8453 19.8701C66.5802 30.1974 58.1254 38.4877 47.7343 38.4877C44.4157 38.4877 41.2946 37.6422 38.5748 36.1548C38.5705 36.3209 38.5684 36.4875 38.5684 36.6546C38.5684 47.2128 47.1275 55.772 57.6858 55.772C68.2441 55.772 76.8032 47.2128 76.8032 36.6546C76.8032 29.4149 72.7789 23.1151 66.8453 19.8701Z" fill="url(#paint5_radial_2001_309)"/>
<path d="M101.114 52.5L92.3548 20.4653H96.2965L102.991 46.5561H103.304L110.124 20.4653H114.504L121.324 46.5561H121.637L128.331 20.4653H132.273L123.514 52.5H119.509L112.439 26.9723H112.189L105.119 52.5H101.114ZM143.201 53.0631C141.679 53.0631 140.297 52.7763 139.056 52.2028C137.815 51.6188 136.83 50.7794 136.1 49.6844C135.37 48.5791 135.005 47.2443 135.005 45.6801C135.005 44.3036 135.276 43.1878 135.818 42.3327C136.36 41.4672 137.085 40.7894 137.992 40.2993C138.9 39.8092 139.901 39.4442 140.996 39.2043C142.101 38.9541 143.212 38.7559 144.327 38.6099C145.787 38.4222 146.971 38.2815 147.878 38.1876C148.796 38.0833 149.463 37.9113 149.88 37.6714C150.308 37.4316 150.522 37.0145 150.522 36.4201V36.2949C150.522 34.7516 150.099 33.5524 149.255 32.6973C148.42 31.8422 147.153 31.4146 145.454 31.4146C143.691 31.4146 142.31 31.8005 141.308 32.5721C140.307 33.3438 139.603 34.1676 139.197 35.0436L135.693 33.7922C136.319 32.3323 137.153 31.1957 138.196 30.3823C139.249 29.5585 140.396 28.9849 141.637 28.6617C142.888 28.328 144.119 28.1611 145.328 28.1611C146.1 28.1611 146.986 28.255 147.988 28.4427C148.999 28.6199 149.974 28.9901 150.913 29.5533C151.862 30.1164 152.649 30.9662 153.275 32.1029C153.9 33.2395 154.213 34.762 154.213 36.6703V52.5H150.522V49.2465H150.334C150.084 49.7679 149.666 50.3258 149.083 50.9202C148.499 51.5146 147.722 52.0203 146.752 52.4374C145.782 52.8546 144.598 53.0631 143.201 53.0631ZM143.764 49.747C145.224 49.747 146.455 49.4602 147.456 48.8867C148.467 48.3132 149.229 47.5728 149.739 46.6656C150.261 45.7583 150.522 44.8042 150.522 43.8031V40.4244C150.365 40.6121 150.021 40.7842 149.489 40.9406C148.968 41.0866 148.363 41.2169 147.675 41.3316C146.997 41.4359 146.335 41.5298 145.688 41.6132C145.052 41.6862 144.536 41.7488 144.14 41.8009C143.18 41.926 142.283 42.1294 141.449 42.4109C140.625 42.6821 139.958 43.094 139.447 43.6467C138.947 44.1889 138.696 44.9293 138.696 45.8678C138.696 47.1505 139.171 48.1203 140.12 48.7772C141.079 49.4237 142.294 49.747 143.764 49.747ZM179.731 33.8548L176.415 34.7933C176.207 34.2406 175.899 33.7036 175.492 33.1822C175.096 32.6504 174.554 32.2124 173.865 31.8683C173.177 31.5241 172.296 31.3521 171.222 31.3521C169.752 31.3521 168.526 31.691 167.546 32.3688C166.576 33.0362 166.091 33.8861 166.091 34.9184C166.091 35.8361 166.425 36.5608 167.093 37.0927C167.76 37.6245 168.803 38.0677 170.221 38.4222L173.787 39.2982C175.935 39.8196 177.536 40.6173 178.589 41.6914C179.643 42.7551 180.169 44.1263 180.169 45.8052C180.169 47.1817 179.773 48.4122 178.98 49.4967C178.198 50.5813 177.103 51.4363 175.696 52.062C174.288 52.6877 172.651 53.0005 170.784 53.0005C168.333 53.0005 166.305 52.4687 164.699 51.4051C163.093 50.3414 162.077 48.7876 161.649 46.7438L165.153 45.8678C165.487 47.1609 166.117 48.1307 167.046 48.7772C167.984 49.4237 169.209 49.747 170.721 49.747C172.442 49.747 173.808 49.382 174.82 48.6521C175.842 47.9117 176.353 47.0253 176.353 45.9929C176.353 45.1587 176.061 44.46 175.477 43.8969C174.893 43.3234 173.996 42.8958 172.786 42.6143L168.782 41.6758C166.582 41.1544 164.965 40.3462 163.933 39.2513C162.911 38.1459 162.4 36.7642 162.4 35.1061C162.4 33.7505 162.781 32.5513 163.542 31.5085C164.313 30.4657 165.361 29.6471 166.686 29.0527C168.021 28.4583 169.533 28.1611 171.222 28.1611C173.6 28.1611 175.466 28.6825 176.822 29.7253C178.188 30.7681 179.158 32.1446 179.731 33.8548ZM194.558 53.0631C193.036 53.0631 191.654 52.7763 190.413 52.2028C189.172 51.6188 188.187 50.7794 187.457 49.6844C186.727 48.5791 186.362 47.2443 186.362 45.6801C186.362 44.3036 186.633 43.1878 187.175 42.3327C187.717 41.4672 188.442 40.7894 189.349 40.2993C190.257 39.8092 191.258 39.4442 192.353 39.2043C193.458 38.9541 194.568 38.7559 195.684 38.6099C197.144 38.4222 198.328 38.2815 199.235 38.1876C200.153 38.0833 200.82 37.9113 201.237 37.6714C201.665 37.4316 201.878 37.0145 201.878 36.4201V36.2949C201.878 34.7516 201.456 33.5524 200.611 32.6973C199.777 31.8422 198.51 31.4146 196.81 31.4146C195.048 31.4146 193.666 31.8005 192.665 32.5721C191.664 33.3438 190.96 34.1676 190.554 35.0436L187.05 33.7922C187.676 32.3323 188.51 31.1957 189.553 30.3823C190.606 29.5585 191.753 28.9849 192.994 28.6617C194.245 28.328 195.476 28.1611 196.685 28.1611C197.457 28.1611 198.343 28.255 199.344 28.4427C200.356 28.6199 201.331 28.9901 202.27 29.5533C203.218 30.1164 204.006 30.9662 204.631 32.1029C205.257 33.2395 205.57 34.762 205.57 36.6703V52.5H201.878V49.2465H201.691C201.441 49.7679 201.023 50.3258 200.439 50.9202C199.855 51.5146 199.079 52.0203 198.109 52.4374C197.139 52.8546 195.955 53.0631 194.558 53.0631ZM195.121 49.747C196.581 49.747 197.812 49.4602 198.813 48.8867C199.824 48.3132 200.585 47.5728 201.096 46.6656C201.618 45.7583 201.878 44.8042 201.878 43.8031V40.4244C201.722 40.6121 201.378 40.7842 200.846 40.9406C200.325 41.0866 199.72 41.2169 199.032 41.3316C198.354 41.4359 197.692 41.5298 197.045 41.6132C196.409 41.6862 195.893 41.7488 195.497 41.8009C194.537 41.926 193.64 42.1294 192.806 42.4109C191.982 42.6821 191.315 43.094 190.804 43.6467C190.303 44.1889 190.053 44.9293 190.053 45.8678C190.053 47.1505 190.528 48.1203 191.477 48.7772C192.436 49.4237 193.651 49.747 195.121 49.747ZM214.57 52.5V20.4653H218.262V32.2906H218.575C218.846 31.8735 219.221 31.3416 219.701 30.6951C220.191 30.0382 220.89 29.4542 221.797 28.9432C222.714 28.4218 223.955 28.1611 225.52 28.1611C227.543 28.1611 229.326 28.6669 230.869 29.6784C232.412 30.6899 233.617 32.1237 234.482 33.9799C235.348 35.8361 235.781 38.026 235.781 40.5495C235.781 43.094 235.348 45.2995 234.482 47.1661C233.617 49.0223 232.418 50.4613 230.885 51.4833C229.352 52.4948 227.584 53.0005 225.582 53.0005C224.039 53.0005 222.803 52.7451 221.875 52.2341C220.947 51.7127 220.233 51.1235 219.732 50.4665C219.232 49.7992 218.846 49.2465 218.575 48.8085H218.137V52.5H214.57ZM218.199 40.487C218.199 42.3014 218.465 43.9021 218.997 45.2891C219.529 46.6656 220.306 47.7448 221.328 48.5269C222.349 49.2986 223.601 49.6844 225.082 49.6844C226.625 49.6844 227.913 49.2778 228.945 48.4644C229.988 47.6406 230.77 46.5352 231.291 45.1483C231.823 43.7509 232.089 42.1972 232.089 40.487C232.089 38.7976 231.829 37.2752 231.307 35.9195C230.796 34.5535 230.019 33.4742 228.976 32.6816C227.944 31.8787 226.646 31.4772 225.082 31.4772C223.58 31.4772 222.318 31.8578 221.296 32.6191C220.274 33.3699 219.503 34.4231 218.981 35.7787C218.46 37.124 218.199 38.6934 218.199 40.487ZM243.189 52.5V28.474H246.881V52.5H243.189ZM245.066 24.4696C244.347 24.4696 243.726 24.2246 243.205 23.7344C242.694 23.2443 242.439 22.6552 242.439 21.9669C242.439 21.2787 242.694 20.6895 243.205 20.1994C243.726 19.7092 244.347 19.4642 245.066 19.4642C245.786 19.4642 246.401 19.7092 246.912 20.1994C247.434 20.6895 247.694 21.2787 247.694 21.9669C247.694 22.6552 247.434 23.2443 246.912 23.7344C246.401 24.2246 245.786 24.4696 245.066 24.4696Z" fill="black"/>
<defs>
<radialGradient id="paint0_radial_2001_309" cx="0" cy="0" r="1" gradientUnits="userSpaceOnUse" gradientTransform="translate(47.7346 19.3704) rotate(90) scale(19.1174)">
<stop offset="0.0926692" stop-color="#090E15"/>
<stop offset="1" stop-color="#83E20C"/>
</radialGradient>
<radialGradient id="paint1_radial_2001_309" cx="0" cy="0" r="1" gradientUnits="userSpaceOnUse" gradientTransform="translate(29.4026 19.3704) rotate(90) scale(19.1174)">
<stop offset="0.0926692" stop-color="#090E15"/>
<stop offset="1" stop-color="#83E20C"/>
</radialGradient>
<radialGradient id="paint2_radial_2001_309" cx="0" cy="0" r="1" gradientUnits="userSpaceOnUse" gradientTransform="translate(19.4514 35.8694) rotate(90) scale(19.1174)">
<stop offset="0.0926692" stop-color="#090E15"/>
<stop offset="1" stop-color="#83E20C"/>
</radialGradient>
<radialGradient id="paint3_radial_2001_309" cx="0" cy="0" r="1" gradientUnits="userSpaceOnUse" gradientTransform="translate(28.6174 52.6292) rotate(90) scale(19.1174)">
<stop offset="0.0926692" stop-color="#090E15"/>
<stop offset="1" stop-color="#83E20C"/>
</radialGradient>
<radialGradient id="paint4_radial_2001_309" cx="0" cy="0" r="1" gradientUnits="userSpaceOnUse" gradientTransform="translate(47.7346 52.6292) rotate(90) scale(19.1174)">
<stop offset="0.0926692" stop-color="#090E15"/>
<stop offset="1" stop-color="#83E20C"/>
</radialGradient>
<radialGradient id="paint5_radial_2001_309" cx="0" cy="0" r="1" gradientUnits="userSpaceOnUse" gradientTransform="translate(57.6858 36.6546) rotate(90) scale(19.1174 19.1174)">
<stop offset="0.0926692" stop-color="#090E15"/>
<stop offset="1" stop-color="#83E20C"/>
</radialGradient>
</defs>
</svg>
