<svg width="254" height="60" viewBox="0 0 254 60" fill="none" xmlns="http://www.w3.org/2000/svg">
<path d="M117.482 20.8886H103.799L108.544 15.3069H136.865V20.8886H125.065V46.5908H117.482V20.8886ZM84.2682 30.7894L72.5747 15.3065H81.8653L88.8597 25.6207L96.443 15.3065H105.626L93.5588 30.7894L105.626 46.5904H96.7095L88.8597 35.8512L81.1715 46.5904H72.1475L84.2682 30.7894ZM211.119 15.6959H240.904C242.981 15.6255 245.058 15.8316 247.08 16.3099C248.444 16.6978 249.679 17.4482 250.652 18.4812C252.533 20.7814 253.483 23.7039 253.315 26.6709V45.9064H245.203V27.9809C245.233 26.9629 245.172 25.9438 245.022 24.9363C244.897 24.3485 244.602 23.8111 244.174 23.3901C243.12 22.4816 241.748 22.0307 240.36 22.139H236.061V45.906H227.949V22.139H219.231V45.906H211.119V15.6959ZM189.569 21.5847C184.685 21.5847 182.243 24.6881 182.243 30.8954C182.123 32.8925 182.541 34.885 183.454 36.6657C184.713 38.8599 187.102 40.1567 189.629 40.0173C194.428 40.0173 196.827 36.9333 196.827 30.7654C196.83 24.7354 194.411 21.675 189.569 21.5847ZM189.507 15.2593C194.956 15.2593 198.972 16.8721 201.555 20.0978C204.014 23.2642 205.278 27.1956 205.127 31.202C205.322 35.4356 203.688 39.5488 200.642 42.4956C197.897 45.0563 194.143 46.3386 189.382 46.3427C184.456 46.3427 180.601 44.8948 177.818 42.0001C175.234 39.3921 173.942 35.5844 173.942 30.5768C173.813 26.726 175.131 22.9662 177.636 20.0389C180.384 16.8878 184.341 15.2949 189.507 15.2593ZM169.712 15.6959V22.139H160.024C156.755 22.139 154.496 22.8943 153.245 24.3812C152.034 25.7856 151.428 27.937 151.428 30.8366C151.428 34.0619 152.417 36.4183 154.394 37.9049C155.184 38.4753 156.079 38.8842 157.028 39.1088C158.332 39.3741 159.663 39.4888 160.993 39.451H169.712V45.906H158.632C156.236 45.9911 153.843 45.6759 151.551 44.9735C149.761 44.3224 148.174 43.2111 146.949 41.752C144.34 38.677 142.979 34.7358 143.135 30.7065C143.135 25.3249 144.648 21.3129 147.676 18.6697C148.929 17.5726 150.422 16.7848 152.035 16.3684C154.197 15.8691 156.414 15.6431 158.633 15.6959H169.713H169.712ZM130.553 41.0559C130.596 39.301 132.054 37.9124 133.809 37.9558C135.564 37.9986 136.952 39.4566 136.91 41.2118C136.867 42.9364 135.457 44.3123 133.732 44.3131C131.956 44.2891 130.534 42.8318 130.553 41.0559Z" fill="#C99C44"/>
<path d="M130.553 41.0567C130.596 39.3014 132.054 37.9131 133.809 37.9566C135.564 37.9993 136.952 39.457 136.909 41.2126C136.867 42.9372 135.457 44.3131 133.732 44.3135C131.956 44.2899 130.534 42.8326 130.553 41.0567Z" fill="#C99C44"/>
<path d="M44.2208 16.2635C43.7261 16.2673 43.2579 16.4869 42.9393 16.8651L33.3808 28.5953L29.0427 33.9053L23.3901 40.8211C22.7904 41.5287 22.8781 42.5883 23.5857 43.1884C24.2938 43.7881 25.3538 43.7 25.9531 42.9927L31.2117 36.5849L36.4689 42.9927C36.7819 43.3784 37.2545 43.6003 37.7515 43.5943H42.0814C43.0132 43.5883 43.7643 42.8286 43.7587 41.8964C43.756 41.5028 43.6162 41.122 43.3629 40.8211L35.5424 31.2741L45.533 19.0364C46.1204 18.2969 45.9971 17.2216 45.2576 16.6339C44.9615 16.3985 44.5956 16.2684 44.2174 16.2632M31.1102 25.9518L36.7627 19.0364C37.3561 18.3093 37.2478 17.2392 36.5206 16.6455C36.2264 16.4056 35.8606 16.271 35.4813 16.2632C34.9861 16.2658 34.5176 16.4858 34.1998 16.8651L28.9411 23.2846L23.6828 16.8651C23.3702 16.4787 22.898 16.2572 22.4013 16.2632H18.0632C17.1299 16.2714 16.3803 17.0349 16.3889 17.9682C16.3923 18.3591 16.5314 18.7366 16.7817 19.0364L24.6034 28.5953L14.6127 40.8211C13.9991 41.5171 14.0658 42.5789 14.7618 43.1929C15.4579 43.8065 16.5197 43.7397 17.1337 43.0437C17.1483 43.0268 17.1629 43.0096 17.1772 42.9927L26.7724 31.2745L31.1102 25.9518ZM30.0573 4.87554C16.1816 4.77546 4.85174 15.9423 4.75129 29.8184C4.65121 43.694 15.8185 55.0239 29.6941 55.1244C43.5698 55.2245 54.8997 44.0572 55.0001 30.1816C55.0005 30.1212 55.0009 30.0601 55.0009 29.9994C55.0335 16.1807 43.876 4.94226 30.0573 4.87554ZM30.0573 59.5011C13.7645 59.624 0.457032 46.5149 0.334842 30.222C0.211903 13.9292 13.3211 0.621765 29.6139 0.499199C45.9067 0.37701 59.2142 13.4854 59.3367 29.7786C59.3375 29.8521 59.3375 29.9256 59.3375 29.9994C59.3787 46.2236 46.2816 59.4201 30.0573 59.5011Z" fill="#C99C44"/>
</svg>
